<?xml version="1.0" encoding="UTF-8"?><svg id="_原稿" xmlns="http://www.w3.org/2000/svg" viewBox="0 0 201 36"><defs><style>.cls-1{fill:#fff;}</style></defs><rect class="cls-1" width="201" height="36"/><polygon points="100.72 27.89 101.46 26.59 100.72 26.59 99.98 27.89 100.72 27.89"/><polygon points="98.98 27.89 99.59 27.89 100.33 26.59 99.59 26.59 98.91 27.8 98.41 27.2 97.21 27.2 95 29.88 96.13 29.88 97.81 27.84 100.34 30.91 101.46 30.91 98.98 27.89"/><rect x="121.68" y="28.31" width="4.95" height=".88"/><polygon points="136.79 29.99 136.79 27.85 138.72 27.85 138.72 27.05 134 27.05 134 27.85 135.93 27.85 135.93 29.99 133.7 29.99 133.7 30.79 139.03 30.79 139.03 29.99 136.79 29.99"/><polygon points="142.01 29.3 141.21 27.89 140.26 27.89 141.06 29.3 142.01 29.3"/><path d="m143.96,27.89c-.11.53-.32.95-.63,1.29l-.73-1.29h-.95l.8,1.41h.76c-.62.58-1.55.85-2.7.84v.76c2.31-.08,3.86-.66,4.32-3.02h-.86Z"/><path d="m157.49,30.79l-1.19-1.44c.41-.56.7-1.31.84-2.3h-4.87v.84h3.77c-.52,1.6-1.73,2.14-3.48,2.14h-.44v.8h.44c1.24,0,2.3-.22,3.1-.83l.65.79h1.18Z"/><path d="m146.54,27.05l-1.02,1.8h1.04l.54-.96h3.03c-.59,1.82-2.15,2.17-3.49,2.25v.8c2.1-.12,4.13-.61,4.58-3.9h-4.67Z"/><polygon points="107.42 26.7 102.13 28.93 102.13 29.88 104.46 28.9 104.46 30.91 105.44 30.91 105.44 28.49 107.42 27.65 107.42 26.7"/><path d="m119.89,28.31c-.43,1.43-1.75,1.72-2.82,1.72h-.52v-3.13h-.9v3.97s1.19,0,1.19,0c1.74,0,3.38-.38,4.02-2.56h-.98Z"/><polygon points="131.68 27.89 132.41 26.59 131.68 26.59 130.94 27.89 131.68 27.89"/><polygon points="131.29 26.59 130.55 26.59 129.82 27.89 130.55 27.89 131.29 26.59"/><polygon points="132.45 29.07 128.66 28.04 128.66 26.9 127.76 26.9 127.76 30.91 128.66 30.91 128.66 28.95 132.45 29.98 132.45 29.07"/><path d="m113.08,26.59h-.74l.26.46h-4.08v.84h4.01c-.57,1.63-2.07,2.18-3.48,2.25v.8c1.89-.11,3.76-.77,4.41-3.06h.36l-.74-1.3Z"/><polygon points="114.21 26.59 113.47 26.59 114.21 27.89 114.95 27.89 114.21 26.59"/><path d="m184.1,17.21l12.1-13.21h-11.08l-7.08,7.73-7.08-7.73h-11.08l12.1,13.21-13.41,14.64h11.08l8.4-9.17,8.4,9.17h11.08l-13.41-14.64Zm3.39,12.5l-9.46-10.33-9.46,10.33h-5.04l11.45-12.5-10.13-11.07h5.04l8.14,8.89,8.14-8.89h5.04l-10.14,11.07,11.45,12.5h-5.04Z"/><path d="m22.48,16.75c.87-.6,1.38-1.54,1.38-2.98,0-2.96-1.66-4.44-5.82-4.44H6.69v15.41h12.8c3.07,0,5.24-1.04,5.24-4,0-2.07-.79-3.32-2.25-3.99Zm-12.01-3.86h8.15c.89,0,1.31.41,1.31,1.15s-.5,1.13-1.45,1.13h-8v-2.28Zm8.78,8.3h-8.78s0-2.58,0-2.58h8.88c.89,0,1.45.49,1.45,1.36s-.5,1.21-1.55,1.22Z"/><path d="m80.86,16.75c.87-.6,1.38-1.54,1.38-2.98,0-2.96-1.66-4.44-5.82-4.44h-11.35v15.41h12.8c3.07,0,5.24-1.04,5.24-4,0-2.07-.79-3.32-2.25-3.99Zm-12.01-3.86h8.15c.89,0,1.31.41,1.31,1.15s-.5,1.13-1.45,1.13h-8v-2.28Zm8.78,8.3h-8.78s0-2.58,0-2.58h8.88c.89,0,1.45.49,1.45,1.36s-.5,1.21-1.55,1.22Z"/><polygon points="88.35 21.19 88.35 9.33 84.57 9.33 84.57 24.74 101.44 24.74 101.44 21.19 88.35 21.19"/><path d="m135.98,9.33h-11.06v15.41h10.77c4.67,0,7.27-2.6,7.27-7.85s-2.86-7.56-6.98-7.56Zm-1.13,11.85h-6.14v-8.3h6.61c2.22,0,3.72,1.38,3.72,4.07,0,2.83-1.67,4.23-4.19,4.23Z"/><polygon points="29.97 21.19 29.97 18.61 41.18 18.61 41.18 15.17 29.97 15.17 29.97 12.89 42.92 12.89 42.92 9.33 26.19 9.33 26.19 24.74 43.07 24.74 43.07 21.19 29.97 21.19"/><polygon points="148.2 21.19 148.2 18.61 159.41 18.61 159.41 15.17 148.2 15.17 148.2 12.89 161.15 12.89 161.15 9.33 144.42 9.33 144.42 24.74 161.3 24.74 161.3 21.19 148.2 21.19"/><polygon points="54 15.54 49.06 9.33 43.94 9.33 51.81 18.89 51.81 24.74 56.18 24.74 56.18 18.89 64.05 9.33 58.93 9.33 54 15.54"/><polygon points="115.17 9.33 111.05 9.33 102.32 24.74 106.68 24.74 113.11 13.41 117.52 21.19 112.06 21.19 110.04 24.74 123.9 24.74 115.17 9.33"/></svg>